<svg xmlns="http://www.w3.org/2000/svg" viewBox="0 0 764.58 647"><defs><style>.cls-1{fill:#ffa93a;}.cls-2{fill:#e87015;}</style></defs><title>BCKLG_Logo_vertical</title><g id="Layer_10" data-name="Layer 10"><path class="cls-1" d="M665.6,630.92q58.59,0,58.6,58.6,0,39.54-24.91,43.94,24.9,4.39,24.91,43.95,0,58.59-58.6,58.59H577.71V630.92Zm-43.94,44v36.62H665.6q14.65,0,14.65-14.65v-7.32q0-14.65-14.65-14.65Zm0,80.56v36.62H665.6q14.65,0,14.65-14.64v-7.33q0-14.64-14.65-14.65Z" transform="translate(-577.71 -189)"/><path class="cls-1" d="M782.68,777.41q0,14.64,14.65,14.64h73.24v44H797.33q-58.61,0-58.6-58.59V689.52q0-58.59,58.6-58.6h73.24v44H797.33q-14.66,0-14.65,14.65Z" transform="translate(-577.71 -189)"/><path class="cls-1" d="M891.08,836V630.92H935v95.22l55.66-95.22h46.88L976,733.46,1037.56,836H990.68L935,740.79V836Z" transform="translate(-577.71 -189)"/><path class="cls-1" d="M1098.74,792.05h87.89v44H1054.79V630.92h44Z" transform="translate(-577.71 -189)"/><path class="cls-1" d="M1239.75,777.41q0,14.64,14.65,14.64h29.3q14.64,0,14.64-14.64v-22h-29.29V711.49h73.24v65.92q0,58.59-58.59,58.59h-29.3q-58.61,0-58.6-58.59V689.52q0-58.59,58.6-58.6h87.89v44H1254.4q-14.65,0-14.65,14.65Z" transform="translate(-577.71 -189)"/></g><g id="Layer_9" data-name="Layer 9"><polygon class="cls-1" points="238.29 72 238.29 288 310.29 360 310.29 0 238.29 72"/><polygon class="cls-2" points="310.29 72 454.29 72 526.29 0 310.29 0 310.29 72"/><polygon class="cls-2" points="310.29 288 454.29 288 526.29 360 310.29 360 310.29 288"/><polygon class="cls-1" points="310.29 144 382.29 216 454.29 216 454.29 144 310.29 144"/><polygon class="cls-1" points="526.29 360 454.29 288 454.29 144 526.29 216 526.29 360"/><polygon class="cls-1" points="454.29 144 526.29 72 526.29 0 454.29 72 454.29 144"/></g></svg>